<svg xmlns="http://www.w3.org/2000/svg" xmlns:xlink="http://www.w3.org/1999/xlink" width="24" height="24" version="1.1" viewBox="0 0 24 24"><title>icon_newmessages</title><desc>Created with Sketch.</desc><g id="02-Chat" fill="none" fill-rule="evenodd" stroke="none" stroke-width="1"><g id="02_7-Chat-new-messages" transform="translate(-809.000000, -325.000000)"><g id="icon_newmessages" transform="translate(809.000000, 325.000000)"><circle id="Oval-1909" cx="12" cy="12" r="12" fill="#454545" fill-opacity=".5"/><path fill="#FFF" d="M16.3400426,11.526774 C16.4870048,11.526774 16.633967,11.4708978 16.7464849,11.3583798 C16.9699899,11.1341094 16.9699899,10.7712964 16.7464849,10.547026 L12.3659396,6.16801148 C12.1424345,5.94374103 11.7788562,5.94450646 11.5545857,6.16724605 L7.16868234,10.5401371 C6.94441188,10.7644076 6.94364646,11.127986 7.16715148,11.3522564 C7.3906565,11.5772923 7.75423488,11.5772923 7.97850533,11.3537873 L11.3915495,7.95069367 L11.3930804,17.4259289 C11.3930804,17.7428161 11.6510296,18 11.9671515,18 C12.2848042,18 12.5412226,17.7428161 12.5412226,17.4259289 L12.5396917,7.9652368 L15.9343656,11.3583798 C16.0461182,11.4708978 16.1930804,11.526774 16.3400426,11.526774 L16.3400426,11.526774 Z" transform="translate(11.957057, 12.000000) rotate(-180.000000) translate(-11.957057, -12.000000)"/></g></g></g></svg>