<svg xmlns="http://www.w3.org/2000/svg" xmlns:svg="http://www.w3.org/2000/svg" id="svg14" width="24" height="24" version="1.1" viewBox="0 0 24 24"><metadata id="metadata18"/><title id="title2">icon_newmessages</title><desc id="desc4">Created with Sketch.</desc><g id="02-Chat" fill="none" fill-rule="evenodd" stroke="none" stroke-width="1"><g id="02_7-Chat-new-messages" transform="translate(-809.000000, -325.000000)"><g id="icon_newmessages" transform="translate(809.000000, 325.000000)"><circle id="Oval-1909" cx="12" cy="12" r="12" fill="#454545" fill-opacity=".5"/><path id="path9" fill="#fff" d="m 7.5740714,11.526774 c -0.1469622,0 -0.2939244,-0.05588 -0.4064423,-0.168394 -0.223505,-0.224271 -0.223505,-0.587084 0,-0.811354 L 11.548174,6.1680115 C 11.77168,5.943741 12.135258,5.9445065 12.359528,6.167246 l 4.385904,4.372891 c 0.22427,0.224271 0.225036,0.587849 0.0015,0.812119 -0.223505,0.225036 -0.587084,0.225036 -0.811354,0.0015 l -3.413044,-3.4030933 -0.0015,9.4752353 C 12.521034,17.742816 12.263084,18 11.946963,18 11.62931,18 11.372891,17.742816 11.372891,17.425929 l 0.0015,-9.4606922 -3.3946736,3.3931432 c -0.1117526,0.112518 -0.2587148,0.168394 -0.405677,0.168394 z"/></g></g></g></svg>