<svg xmlns="http://www.w3.org/2000/svg" xmlns:svg="http://www.w3.org/2000/svg" id="svg3760" width="22" height="22" version="1.1"><defs id="defs3762"><style id="current-color-scheme" type="text/css">.ColorScheme-Text{color:#4d4d4d}</style></defs><metadata id="metadata3765"/><g id="layer1" transform="translate(-553.72253,-583.11926)"><path style="opacity:1;fill:currentColor;fill-opacity:1;stroke:none" id="rect3312" d="M 7 3 L 7 7 L 3 7 L 3 8 L 7 8 L 7 14 L 3 14 L 3 15 L 7 15 L 7 19 L 8 19 L 8 15 L 11 15 L 11 14 L 8 14 L 8 8 L 14 8 L 14 11 L 15 11 L 15 8 L 19 8 L 19 7 L 15 7 L 15 3 L 14 3 L 14 7 L 8 7 L 8 3 L 7 3 z" class="ColorScheme-Text" transform="translate(553.72253,583.11926)"/><rect style="opacity:1;fill:#43be80;fill-opacity:1;stroke:none;stroke-opacity:1" id="rect4172" width="7" height="7" x="565.723" y="595.119" ry="3.5"/></g></svg>